<?xml version="1.0" encoding="UTF-8"?><svg id="a" xmlns="http://www.w3.org/2000/svg" viewBox="0 0 147.35 147.35"><defs><style>.b{fill:#fff;}</style></defs><circle cx="73.67" cy="73.67" r="73.67"/><g><path class="b" d="M43.47,62.5h2.7l4.9,14.82c.31,.92,.78,2.67,.78,2.67h.06s.47-1.78,.78-2.67l4.85-14.82h2.62l-6.99,19.92h-2.76l-6.94-19.92Z"/><path class="b" d="M62.81,62.5h2.26v2.79h-2.26v-2.79Zm0,5.52h2.26v14.4h-2.26v-14.4Z"/><path class="b" d="M68.16,75.23c0-4.18,2.73-7.58,6.83-7.58,4.32,0,6.63,3.34,6.63,8.11h-11.14c.17,2.93,1.75,5.15,4.65,5.15,2.09,0,3.48-1,3.98-2.95h2.2c-.67,3.09-2.92,4.85-6.18,4.85-4.4,0-6.96-3.4-6.96-7.58Zm2.37-1.17h8.66c-.14-2.87-1.62-4.62-4.21-4.62s-4.12,2.01-4.46,4.62Z"/><path class="b" d="M82.95,68.01h2.42l2.54,8.89c.33,1.2,.78,3.09,.78,3.09h.06s.42-1.89,.72-3.04l2.42-8.94h2.37l2.34,8.94c.31,1.17,.7,3.04,.7,3.04h.06s.45-1.89,.81-3.09l2.67-8.89h2.34l-4.71,14.4h-2.31l-2.4-8.72c-.33-1.2-.7-3.01-.7-3.01h-.06s-.39,1.81-.72,3.01l-2.42,8.72h-2.34l-4.57-14.4Z"/></g></svg>